<?xml version="1.0" standalone="no"?>
<!DOCTYPE svg PUBLIC "-//W3C//DTD SVG 20010904//EN"
 "http://www.w3.org/TR/2001/REC-SVG-20010904/DTD/svg10.dtd">
<svg version="1.0" xmlns="http://www.w3.org/2000/svg"
 width="932.000000pt" height="932.000000pt" viewBox="0 0 932.000000 932.000000"
 preserveAspectRatio="xMidYMid meet">
<metadata>
Created by potrace 1.11, written by Peter Selinger 2001-2013
</metadata>
<g transform="translate(0.000000,932.000000) scale(0.100000,-0.100000)"
fill="#000000" stroke="none">
<path d="M6860 8269 c-80 -9 -176 -19 -215 -22 -38 -4 -162 -16 -275 -27 -113
-11 -227 -22 -255 -25 -27 -2 -95 -9 -150 -14 -55 -6 -129 -13 -165 -16 -36
-3 -81 -7 -100 -10 -19 -2 -66 -6 -105 -10 -38 -3 -88 -8 -110 -10 -22 -3 -65
-7 -95 -9 -63 -6 -253 -24 -320 -31 -25 -2 -74 -7 -110 -10 -36 -4 -76 -8 -90
-10 -14 -2 -119 -13 -235 -25 -115 -11 -231 -23 -257 -25 -27 -3 -69 -7 -95
-10 -27 -2 -72 -7 -100 -10 -29 -3 -77 -7 -105 -10 -29 -3 -73 -7 -98 -10
-110 -11 -149 -15 -205 -20 -33 -3 -107 -10 -165 -15 -58 -6 -130 -13 -160
-16 -30 -3 -75 -7 -100 -9 -25 -3 -70 -7 -100 -10 -30 -3 -122 -12 -205 -20
-82 -8 -181 -17 -220 -20 -38 -4 -86 -8 -105 -10 -19 -2 -129 -14 -245 -25
-347 -36 -317 -29 -339 -75 -47 -100 -347 -817 -343 -821 3 -4 922 -12 1546
-13 l204 -1 -7 -32 c-4 -18 -25 -127 -46 -243 -30 -162 -121 -647 -186 -985
-40 -206 -92 -483 -120 -630 -19 -102 -45 -243 -59 -315 -26 -137 -30 -175
-18 -175 8 0 296 32 673 75 118 13 238 27 265 30 28 3 84 9 125 15 75 9 95 12
221 25 l67 7 2 -363 c1 -200 4 -683 6 -1074 1 -390 3 -726 4 -745 0 -34 1 -33
26 25 14 33 31 76 38 95 8 19 59 145 114 280 55 135 178 434 272 665 95 231
178 434 185 450 8 17 38 91 68 165 99 245 595 1453 646 1575 54 127 59 145 37
145 -19 0 -191 -36 -618 -129 -451 -99 -860 -182 -866 -176 -5 5 40 141 155
465 52 146 141 398 198 560 57 162 127 360 155 440 28 80 68 195 89 255 76
217 120 334 131 352 10 17 8 -94 -5 -227 -2 -19 -6 -78 -10 -130 -3 -52 -8
-106 -10 -120 -2 -14 -7 -65 -11 -115 -3 -49 -8 -102 -9 -117 -2 -15 1 -30 6
-33 13 -9 1432 -6 1440 2 11 12 529 1318 529 1334 0 7 0 7 -170 -12z"/>
<path d="M6935 2019 c-44 -12 -73 -43 -85 -90 -17 -63 -7 -119 26 -147 25 -22
35 -24 91 -19 111 9 149 55 144 179 -1 15 -11 39 -24 53 -18 21 -33 27 -72 30
-28 1 -64 -1 -80 -6z"/>
<path d="M6396 2008 c-3 -7 -19 -96 -36 -198 -18 -102 -35 -188 -39 -192 -3
-4 -29 -1 -57 6 -150 40 -313 -24 -375 -146 -28 -55 -58 -188 -74 -329 -17
-144 62 -231 208 -230 76 0 150 25 184 62 35 36 43 36 68 -1 47 -71 214 -83
288 -22 13 12 17 31 17 87 l0 72 -37 -1 c-29 -1 -39 4 -49 22 -12 24 -11 32
27 242 25 140 20 107 68 388 23 128 41 237 41 242 0 16 -230 13 -234 -2z
m-126 -593 c20 -24 -17 -227 -49 -266 -27 -34 -105 -36 -137 -4 -27 27 -29 54
-14 134 13 71 38 119 69 136 35 19 115 19 131 0z"/>
<path d="M1017 1963 c-10 -17 -39 -204 -33 -210 4 -4 75 -9 159 -11 84 -2 158
-5 165 -7 18 -6 16 -32 -28 -271 -65 -364 -91 -517 -85 -522 2 -3 57 -5 121
-6 l118 -1 8 30 c4 16 10 45 13 65 3 19 14 85 25 145 11 61 37 210 59 333 21
123 40 225 43 227 2 2 79 6 172 9 92 2 172 8 176 13 11 11 42 195 34 202 -9 9
-942 13 -947 4z"/>
<path d="M2856 1805 c-61 -25 -113 -48 -117 -52 -8 -8 -67 -337 -94 -530 -20
-138 -12 -180 46 -235 57 -54 126 -72 253 -66 189 10 279 72 345 238 18 45 29
85 26 88 -7 8 -180 10 -208 4 -10 -3 -25 -22 -34 -43 -8 -22 -29 -51 -46 -65
-26 -22 -38 -25 -71 -21 -64 9 -79 35 -72 125 4 40 11 96 17 123 l11 49 181 2
c100 0 189 1 197 2 14 1 25 38 43 149 5 35 4 37 -21 39 -15 0 -31 2 -37 3 -5
2 -75 3 -155 4 -80 1 -151 5 -158 9 -10 7 -10 28 3 110 8 56 15 104 15 107 0
9 -14 5 -124 -40z"/>
<path d="M3651 1805 c-58 -25 -111 -51 -119 -59 -8 -7 -20 -49 -28 -92 -87
-478 -94 -563 -55 -632 46 -79 172 -117 331 -99 171 20 267 112 325 314 6 22
6 22 -109 20 l-116 -2 -11 -33 c-6 -18 -25 -48 -44 -67 -27 -29 -40 -35 -73
-35 -76 0 -97 61 -71 206 5 32 12 67 15 76 5 16 25 18 202 20 l197 3 17 90 c9
49 14 92 11 95 -2 3 -80 6 -171 8 -217 4 -215 3 -207 50 9 58 25 166 25 175 0
12 -11 9 -119 -38z"/>
<path d="M2031 1628 c-104 -18 -183 -85 -220 -183 -27 -72 -61 -254 -62 -330
-1 -49 4 -73 22 -105 34 -60 77 -83 169 -88 93 -5 139 8 198 56 l44 35 29 -36
c38 -46 84 -61 168 -54 116 8 141 35 141 149 l0 47 -32 -5 c-21 -4 -40 0 -53
10 -20 14 -20 16 18 242 21 125 41 234 44 242 5 12 -9 14 -94 10 -59 -2 -107
-9 -115 -16 -12 -10 -24 -8 -61 8 -51 23 -131 30 -196 18z m177 -211 c15 -12
12 -49 -14 -177 -18 -88 -45 -120 -99 -120 -90 0 -115 36 -97 141 23 131 72
185 157 173 22 -3 46 -11 53 -17z"/>
<path d="M4493 1624 c-116 -24 -201 -88 -239 -181 -23 -55 -55 -210 -59 -285
-9 -173 53 -227 271 -236 105 -4 132 -2 194 17 136 42 192 127 231 351 33 191
14 257 -86 308 -73 36 -209 48 -312 26z m151 -216 c32 -39 10 -186 -38 -251
-26 -35 -81 -53 -119 -38 -44 17 -53 50 -39 141 13 90 40 151 74 168 35 18
100 7 122 -20z"/>
<path d="M5320 1628 c-196 -28 -275 -142 -309 -443 -21 -192 40 -254 259 -263
238 -10 361 61 405 235 67 262 57 371 -41 432 -63 41 -191 56 -314 39z m127
-210 c26 -25 30 -74 12 -160 -21 -100 -57 -140 -126 -140 -28 0 -43 7 -61 28
-22 25 -24 34 -18 83 11 94 28 141 61 177 40 42 95 47 132 12z"/>
<path d="M7475 1628 c-137 -20 -234 -100 -269 -221 -46 -160 -59 -316 -33
-379 17 -40 74 -79 143 -97 56 -15 197 -15 270 -1 184 36 248 142 287 472 17
141 -77 225 -258 231 -50 1 -112 -1 -140 -5z m122 -214 c25 -25 25 -29 19
-102 -10 -127 -56 -192 -136 -192 -17 0 -39 9 -51 21 -19 19 -21 29 -16 85 9
91 26 142 63 180 40 43 83 46 121 8z"/>
<path d="M6830 1612 c-23 -7 -26 -18 -62 -212 -44 -236 -56 -372 -36 -409 26
-48 62 -64 150 -69 71 -4 90 -1 131 18 l47 22 0 80 0 80 -25 -6 c-29 -7 -60 6
-69 29 -3 8 -1 39 5 68 5 28 12 68 15 87 3 19 17 95 30 169 13 74 22 137 19
139 -8 8 -180 11 -205 4z"/>
</g>
</svg>
